# xmcd
#
# Track frame offsets:
#	150
#	18002
#	35740
#	54612
#	68227
#	87500
#	101285
#	115470
#	138812
#	160472
#	175565
#
# Disc length: 2547
#
# Revision: 3
# Processed by: cddbd v1.5.1PL0 Copyright (c) Steve Scherf et al.
# Submitted via: CDex 1.51
# Normalized: r2:DSETVAR1
#
DISCID=8b09f10b
DTITLE=Various Artist - Schöner Hören 03
DYEAR=2000
DGENRE=misc
TTITLE0=Patrice - Wonder (Shinin' On)
TTITLE1=Omara Portuondo - La Sitiera
TTITLE2=Nina Persson and David Arnold - Theme From Randall and Hopkirk
TTITLE3=Sinead O'Connor - No Man's Woman
TTITLE4=Hans Zimmer and Lisa Gerrad - Now We Are Free
TTITLE5=Chico Cesar - 4h15 Ou 10p/3
TTITLE6=Das Department - Hi Doing
TTITLE7=Flatz - Ich
TTITLE8=Nawfel - Why Can't We Live Together
TTITLE9=Willie Nelson - Honeysuckle Rose
TTITLE10=Nikki Sudden - I Belong To You
EXTD=YEAR: 2000
EXTT0=
EXTT1=
EXTT2=
EXTT3=
EXTT4=
EXTT5=
EXTT6=
EXTT7=
EXTT8=
EXTT9=
EXTT10=
PLAYORDER=
